<svg width="32" height="28" viewBox="0 0 32 28" fill="none" xmlns="http://www.w3.org/2000/svg">
<path d="M16.6494 27.6708C25.1273 27.6708 31.7092 21.4765 31.3506 13.8354C30.9919 6.19427 23.8285 -6.10352e-05 15.3506 -6.10352e-05C6.87269 -6.10352e-05 0.290752 6.19427 0.649412 13.8354C1.00807 21.4765 8.17152 27.6708 16.6494 27.6708Z" fill="#77BF00"/>
<path d="M19.8079 7.85431C18.8936 7.48243 17.8104 7.46823 16.2382 7.81293L16.2137 7.81784L15.452 5.25313L13.8559 5.60554L14.6208 8.17494C14.1448 8.28424 13.6196 8.4046 13.1048 8.52805L12.3404 5.93759L10.7418 6.2881L11.5002 8.88576C10.9419 9.02889 8.22932 9.5882 8.22932 9.5882L8.64402 11.0983L10.7164 10.6823L12.9485 18.2391L10.8957 18.6537L11.3267 20.1901C11.3267 20.1901 14.0432 19.6601 14.6615 19.5507L15.4246 22.1627L17.0207 21.8103L16.2622 19.2377C16.7992 19.1386 17.3318 19.0166 17.7988 18.9264L18.5409 21.4853L20.137 21.1329L19.3996 18.6155C21.1483 18.19 22.2926 17.5999 22.8924 16.7997C23.1444 16.4524 23.3105 16.0637 23.3802 15.6582C23.4499 15.2526 23.4218 14.8389 23.2975 14.4432C22.8365 12.8655 21.2356 12.3253 20.0063 12.3308L19.999 12.3C21.1585 11.6064 21.6727 10.537 21.3727 9.51317C21.1271 8.67187 20.56 8.12249 19.8079 7.85431ZM19.1178 15.2102C19.3873 16.1325 18.7113 17.001 17.2162 17.3311L15.9367 17.6101L15.0339 14.5378C15.4266 14.3808 15.837 14.2592 16.2585 14.1747C17.6853 13.8651 18.7916 14.091 19.1178 15.2102ZM17.9085 10.7284C17.9864 10.975 17.9887 11.235 17.9153 11.4827C17.8419 11.7304 17.6953 11.9574 17.4898 12.1412C17.1638 12.4553 16.6667 12.7045 16.0128 12.8473L16.0038 12.8518L14.7312 13.1304L13.8312 10.0568C14.2237 9.90127 14.6337 9.78085 15.0546 9.6974C15.06 9.69469 15.0636 9.69289 15.0691 9.69018C15.7111 9.55323 16.2848 9.52346 16.7522 9.63439C17.321 9.77082 17.7322 10.1174 17.9085 10.7284Z" fill="white"/>
</svg>
