<svg width="33" height="30" viewBox="0 0 33 30" fill="none" xmlns="http://www.w3.org/2000/svg">
<path d="M16.8543 29.9999C25.3372 29.9999 32.1009 23.2842 31.9615 14.9999C31.8221 6.71567 24.8324 -6.10352e-05 16.3494 -6.10352e-05C7.86652 -6.10352e-05 1.10275 6.71567 1.24215 14.9999C1.38155 23.2842 8.37132 29.9999 16.8543 29.9999Z" fill="#F7931A"/>
<path d="M22.7021 11.6265C22.1429 10.8536 21.2413 10.3358 19.7277 9.92506L19.7044 9.91825L20.5027 7.17043L18.9649 6.75578L18.1666 9.50943C17.7056 9.38971 17.197 9.25733 16.6956 9.13274L17.506 6.35962L15.9671 5.94205L15.1476 8.71906C14.5985 8.59252 12.007 7.85082 12.007 7.85082L11.5086 9.45298L13.482 10.0302L11.1195 18.1208L9.16327 17.5514L8.66382 19.1857C8.66382 19.1857 11.2421 19.9566 11.8226 20.1425L10.999 22.9351L12.5368 23.3497L13.3422 20.5961C13.8488 20.7537 14.3644 20.8881 14.8072 21.0214L13.9957 23.7546L15.5335 24.1693L16.3258 21.477C18.0328 21.8945 19.3245 21.877 20.2768 21.4098C20.6832 21.2031 21.0406 20.9178 21.3265 20.5719C21.6125 20.226 21.8208 19.8269 21.9383 19.3998C22.4357 17.713 21.3942 16.4632 20.3589 15.8957L20.37 15.8636C21.7326 15.7565 22.7639 14.9982 23.0861 13.9032C23.3515 13.0038 23.1833 12.2271 22.7021 11.6265ZM17.9984 18.1685C17.7076 19.1545 16.653 19.65 15.2124 19.2616L13.9815 18.9258L14.946 15.6387C15.3638 15.6752 15.7766 15.7528 16.1779 15.8704C17.5496 16.2461 18.3519 16.9722 17.9984 18.1685ZM19.4957 13.4233C19.4228 13.6898 19.279 13.9334 19.0785 14.1304C18.878 14.3273 18.6276 14.4707 18.3519 14.5466C17.9021 14.6877 17.3449 14.6887 16.7158 14.5174H16.7057L15.4809 14.1845L16.4484 10.8975C16.8652 10.9352 17.277 11.0138 17.6772 11.132C17.6833 11.132 17.6874 11.132 17.6934 11.132C18.3094 11.3033 18.8078 11.5428 19.1381 11.864C19.5393 12.2563 19.6902 12.7712 19.4957 13.4233Z" fill="white"/>
</svg>
